<svg width="40" height="40" viewBox="0 0 40 40" fill="none" xmlns="http://www.w3.org/2000/svg">
    <path d="M36.107 4.72134C35.5913 3.50023 34.7269 2.45832 33.6221 1.72597C32.5172 0.993619 31.2209 0.603354 29.8953 0.604005H10.1047C9.21909 0.603567 8.3421 0.777672 7.52384 1.11637C6.70559 1.45506 5.96211 1.95171 5.33591 2.57791C4.70971 3.20411 4.21306 3.94759 3.87437 4.76585C3.53567 5.5841 3.36156 6.46109 3.362 7.34667V22.661C3.3606 24.7543 3.77191 26.8274 4.57239 28.7616C5.37288 30.6958 6.54684 32.4532 8.02713 33.9333C9.50741 35.4134 11.265 36.5871 13.1993 37.3874C15.1336 38.1876 17.2067 38.5987 19.3 38.597H20.7033C22.7966 38.5988 24.8697 38.1878 26.804 37.3876C28.7382 36.5874 30.4957 35.4136 31.9759 33.9335C33.4561 32.4533 34.6299 30.6959 35.4302 28.7616C36.2304 26.8273 36.6414 24.7543 36.6397 22.661V7.34667C36.6406 6.44463 36.4594 5.55169 36.107 4.72134ZM34.1497 22.661C34.1497 28.422 30.5267 33.337 25.435 35.2517C23.9218 35.8202 22.3182 36.1106 20.7017 36.1087H19.3C17.6835 36.1106 16.0799 35.8202 14.5667 35.2517C9.47334 33.337 5.85034 28.422 5.85034 22.661V7.34667C5.85034 6.21835 6.29856 5.13625 7.0964 4.3384C7.89424 3.54056 8.97635 3.09234 10.1047 3.09234H29.8953C31.0237 3.09234 32.1058 3.54056 32.9036 4.3384C33.7014 5.13625 34.1497 6.21835 34.1497 7.34667V22.661Z" fill="#FBFF69"/>
    <path d="M34.1497 7.34662V22.661C34.1497 28.422 30.5267 33.337 25.435 35.2516C23.9218 35.8202 22.3182 36.1105 20.7017 36.1086H19.3C17.6835 36.1105 16.0799 35.8202 14.5667 35.2516C9.47334 33.337 5.85034 28.422 5.85034 22.661V7.34662C5.85034 6.2183 6.29857 5.13619 7.09641 4.33835C7.89425 3.54051 8.97636 3.09229 10.1047 3.09229H29.8953C31.0237 3.09229 32.1058 3.54051 32.9036 4.33835C33.7015 5.13619 34.1497 6.2183 34.1497 7.34662Z" fill="#FBFF69"/>
    <path d="M34.9614 5.20606C34.5409 4.20993 33.8359 3.36 32.9347 2.76273C32.0334 2.16546 30.9759 1.8474 29.8947 1.84839H10.1047C9.38234 1.84782 8.66696 1.98971 7.99951 2.26593C7.33205 2.54214 6.72562 2.94728 6.21492 3.45813C5.70422 3.96899 5.29927 4.57555 5.02325 5.24308C4.74723 5.91062 4.60557 6.62604 4.60636 7.34839V22.6611C4.59996 25.6883 5.53475 28.6428 7.28136 31.1154C8.63604 33.0443 10.4357 34.6183 12.5278 35.7041C14.6199 36.7898 16.9429 37.3553 19.3 37.3527H20.7034C22.6328 37.3531 24.5435 36.9734 26.3261 36.2352C28.1088 35.497 29.7286 34.4149 31.0929 33.0505C32.4573 31.6862 33.5395 30.0665 34.2777 28.2838C35.0159 26.5012 35.3957 24.5905 35.3954 22.6611V7.34672C35.3962 6.61124 35.2486 5.88315 34.9614 5.20606ZM34.1497 22.6611C34.1497 28.4221 30.5267 33.3371 25.435 35.2517C23.9218 35.8203 22.3182 36.1106 20.7017 36.1087H19.3C17.6835 36.1106 16.0799 35.8203 14.5667 35.2517C9.47336 33.3371 5.85036 28.4221 5.85036 22.6611V7.34672C5.85036 6.2184 6.29858 5.1363 7.09642 4.33846C7.89426 3.54061 8.97637 3.09239 10.1047 3.09239H29.8954C31.0237 3.09239 32.1058 3.54061 32.9036 4.33846C33.7015 5.1363 34.1497 6.2184 34.1497 7.34672V22.6611Z" fill="#121316"/>
    <path d="M28.7473 15.5C28.4912 15.4999 28.2376 15.5503 28.001 15.6483C27.7644 15.7463 27.5493 15.8899 27.3682 16.071C27.1871 16.2521 27.0435 16.4671 26.9454 16.7037C26.8474 16.9403 26.797 17.1939 26.797 17.45C26.797 17.5166 26.8002 17.5815 26.8066 17.6446L20.5526 20.1943V17.944L25.0546 16.1106V13.494C25.5043 13.3611 25.8911 13.0707 26.1441 12.676C26.3972 12.2812 26.4995 11.8085 26.4324 11.3444C26.3653 10.8803 26.1332 10.456 25.7787 10.1491C25.4242 9.84213 24.971 9.6732 24.5021 9.6732C24.0332 9.6732 23.58 9.84213 23.2255 10.1491C22.871 10.456 22.639 10.8803 22.5719 11.3444C22.5048 11.8085 22.6071 12.2812 22.8601 12.676C23.1132 13.0707 23.5 13.3611 23.9496 13.494V15.3666L20.5526 16.751V9.45097C21.0024 9.31814 21.3893 9.0277 21.6424 8.63286C21.8955 8.23803 21.9978 7.76522 21.9307 7.30106C21.8636 6.8369 21.6315 6.41245 21.277 6.10547C20.9224 5.79848 20.4691 5.62952 20.0001 5.62952C19.5312 5.62952 19.0779 5.79848 18.7233 6.10547C18.3687 6.41245 18.1367 6.8369 18.0696 7.30106C18.0024 7.76522 18.1048 8.23803 18.3579 8.63286C18.611 9.0277 18.9979 9.31814 19.4476 9.45097V16.751L16.0503 15.3666V13.4933C16.5001 13.3605 16.887 13.07 17.1401 12.6752C17.3931 12.2804 17.4955 11.8076 17.4284 11.3434C17.3613 10.8792 17.1292 10.4548 16.7746 10.1478C16.4201 9.84082 15.9668 9.67185 15.4978 9.67185C15.0288 9.67185 14.5755 9.84082 14.221 10.1478C13.8664 10.4548 13.6343 10.8792 13.5672 11.3434C13.5001 11.8076 13.6025 12.2804 13.8556 12.6752C14.1087 13.07 14.4955 13.3605 14.9453 13.4933V16.11L19.4476 17.9433V20.1936L13.1933 17.644C13.1998 17.58 13.203 17.5151 13.203 17.4493C13.2031 16.9889 13.0402 16.5432 12.7433 16.1913C12.4464 15.8394 12.0345 15.6039 11.5806 15.5266C11.1267 15.4492 10.66 15.535 10.2633 15.7687C9.86654 16.0024 9.5653 16.3689 9.4129 16.8034C9.26049 17.2379 9.26675 17.7123 9.43057 18.1426C9.5944 18.573 9.90521 18.9314 10.308 19.1546C10.7107 19.3777 11.1795 19.4511 11.6312 19.3618C12.0829 19.2725 12.4884 19.0263 12.776 18.6666L19.4476 21.387V26.6173L15.7 25.089L15.626 25.0586C15.6323 24.9946 15.6356 24.9293 15.6356 24.8633C15.6357 24.4028 15.4729 23.9571 15.1759 23.6052C14.879 23.2533 14.4671 23.0177 14.0131 22.9403C13.5592 22.8629 13.0925 22.9486 12.6957 23.1823C12.2989 23.4159 11.9976 23.7824 11.8451 24.2169C11.6925 24.6514 11.6987 25.1259 11.8624 25.5563C12.0261 25.9867 12.3368 26.3453 12.7395 26.5686C13.1423 26.7919 13.611 26.8655 14.0628 26.7764C14.5146 26.6872 14.9202 26.4411 15.208 26.0816L15.2823 26.112L19.449 27.8103V32.8043C17.5633 32.9472 15.8095 33.8263 14.5666 35.2516C16.0799 35.8202 17.6834 36.1105 19.3 36.1086H19.4493V36.9086H20.5543V36.1086H20.7033C22.3198 36.1105 23.9234 35.8202 25.4366 35.2516C24.1938 33.8263 22.44 32.9472 20.5543 32.8043V27.8103L24.721 26.112L24.795 26.0816C25.0827 26.4411 25.4883 26.6871 25.94 26.7762C26.3917 26.8653 26.8603 26.7917 27.263 26.5684C27.6656 26.3451 27.9763 25.9866 28.1399 25.5563C28.3036 25.1259 28.3097 24.6516 28.1572 24.2172C28.0048 23.7828 27.7035 23.4163 27.3068 23.1827C26.91 22.9491 26.4434 22.8634 25.9896 22.9408C25.5357 23.0181 25.1239 23.2536 24.827 23.6055C24.5301 23.9573 24.3672 24.4029 24.3673 24.8633C24.3673 24.93 24.3706 24.9946 24.377 25.0586L24.3036 25.089L20.5526 26.6173V21.3876L27.224 18.6666C27.4298 18.9246 27.6977 19.1262 28.0027 19.2524C28.3076 19.3786 28.6396 19.4254 28.9675 19.3883C29.2955 19.3512 29.6087 19.2316 29.8777 19.0405C30.1468 18.8494 30.363 18.5932 30.5061 18.2958C30.6492 17.9984 30.7144 17.6695 30.6958 17.34C30.6771 17.0105 30.5751 16.6911 30.3994 16.4118C30.2237 16.1324 29.9799 15.9022 29.691 15.7428C29.402 15.5833 29.0773 15.4998 28.7473 15.5ZM23.657 11.6233C23.657 11.4561 23.7066 11.2927 23.7994 11.1537C23.8923 11.0146 24.0244 10.9063 24.1788 10.8423C24.3333 10.7783 24.5033 10.7616 24.6672 10.7942C24.8312 10.8268 24.9818 10.9073 25.1001 11.0256C25.2183 11.1438 25.2988 11.2944 25.3314 11.4584C25.364 11.6224 25.3473 11.7923 25.2833 11.9468C25.2193 12.1013 25.111 12.2333 24.972 12.3262C24.8329 12.4191 24.6695 12.4686 24.5023 12.4686C24.2782 12.4684 24.0633 12.3792 23.9049 12.2208C23.7464 12.0623 23.6572 11.8474 23.657 11.6233ZM14.6523 11.6233C14.6523 11.4561 14.7019 11.2927 14.7948 11.1537C14.8877 11.0146 15.0197 10.9063 15.1742 10.8423C15.3286 10.7783 15.4986 10.7616 15.6626 10.7942C15.8265 10.8268 15.9772 10.9073 16.0954 11.0256C16.2136 11.1438 16.2941 11.2944 16.3267 11.4584C16.3594 11.6224 16.3426 11.7923 16.2786 11.9468C16.2146 12.1013 16.1063 12.2333 15.9673 12.3262C15.8283 12.4191 15.6648 12.4686 15.4976 12.4686C15.2735 12.4684 15.0587 12.3792 14.9002 12.2208C14.7417 12.0623 14.6526 11.8474 14.6523 11.6233ZM11.2523 18.2946C11.0851 18.2946 10.9217 18.2451 10.7827 18.1522C10.6437 18.0593 10.5353 17.9273 10.4713 17.7728C10.4073 17.6183 10.3906 17.4484 10.4232 17.2844C10.4558 17.1204 10.5363 16.9698 10.6546 16.8516C10.7728 16.7333 10.9234 16.6528 11.0874 16.6202C11.2514 16.5876 11.4213 16.6043 11.5758 16.6683C11.7303 16.7323 11.8623 16.8406 11.9552 16.9797C12.0481 17.1187 12.0976 17.2821 12.0976 17.4493C12.0974 17.6734 12.0083 17.8882 11.8499 18.0466C11.6915 18.2051 11.4767 18.2943 11.2526 18.2946H11.2523ZM13.6856 25.7083C13.5184 25.7083 13.355 25.6587 13.216 25.5658C13.0769 25.4729 12.9686 25.3409 12.9046 25.1864C12.8407 25.0319 12.8239 24.8619 12.8566 24.6979C12.8892 24.5339 12.9698 24.3833 13.088 24.2651C13.2063 24.1469 13.3569 24.0664 13.5209 24.0338C13.6849 24.0013 13.8549 24.018 14.0094 24.0821C14.1638 24.1461 14.2958 24.2545 14.3887 24.3936C14.4815 24.5326 14.531 24.6961 14.531 24.8633C14.5307 25.0875 14.4415 25.3024 14.2828 25.4609C14.1242 25.6193 13.9092 25.7083 13.685 25.7083H13.6856ZM26.3156 24.018C26.4828 24.018 26.6463 24.0675 26.7853 24.1604C26.9243 24.2533 27.0326 24.3853 27.0966 24.5398C27.1606 24.6943 27.1774 24.8642 27.1447 25.0282C27.1121 25.1922 27.0316 25.3428 26.9134 25.461C26.7952 25.5793 26.6445 25.6598 26.4806 25.6924C26.3166 25.725 26.1466 25.7083 25.9921 25.6443C25.8377 25.5803 25.7057 25.472 25.6128 25.3329C25.5199 25.1939 25.4703 25.0305 25.4703 24.8633C25.4706 24.6393 25.5596 24.4245 25.718 24.2661C25.8763 24.1076 26.091 24.0184 26.315 24.018H26.3156ZM20 8.42464C19.8328 8.42464 19.6693 8.37505 19.5303 8.28215C19.3913 8.18925 19.2829 8.05721 19.219 7.90272C19.155 7.74824 19.1383 7.57825 19.1709 7.41426C19.2036 7.25028 19.2841 7.09965 19.4024 6.98144C19.5206 6.86324 19.6713 6.78275 19.8353 6.75017C19.9993 6.71759 20.1692 6.73438 20.3237 6.79841C20.4782 6.86245 20.6102 6.97085 20.703 7.1099C20.7959 7.24896 20.8454 7.41243 20.8453 7.57964C20.845 7.80372 20.7559 8.01855 20.5974 8.17697C20.4389 8.33539 20.2241 8.42446 20 8.42464ZM28.7473 18.2946C28.5801 18.2946 28.4167 18.2451 28.2777 18.1522C28.1387 18.0593 28.0303 17.9273 27.9663 17.7728C27.9023 17.6183 27.8856 17.4484 27.9182 17.2844C27.9508 17.1204 28.0313 16.9698 28.1496 16.8516C28.2678 16.7333 28.4184 16.6528 28.5824 16.6202C28.7464 16.5876 28.9163 16.6043 29.0708 16.6683C29.2253 16.7323 29.3573 16.8406 29.4502 16.9797C29.5431 17.1187 29.5926 17.2821 29.5926 17.4493C29.5925 17.6734 29.5033 17.8884 29.3449 18.0468C29.1864 18.2053 28.9715 18.2945 28.7473 18.2946Z" fill="#121316"/>
</svg>
    