<svg xmlns="http://www.w3.org/2000/svg" width="32" height="32" viewBox="0 0 32 32" fill="none">
    <path d="M28.8856 3.77702C28.473 2.80013 27.7815 1.96661 26.8976 1.38073C26.0137 0.794846 24.9767 0.482635 23.9162 0.483155H8.08371C7.37525 0.482804 6.67366 0.622089 6.01905 0.893045C5.36445 1.164 4.76966 1.56132 4.2687 2.06228C3.76774 2.56324 3.37042 3.15802 3.09947 3.81263C2.82851 4.46723 2.68923 5.16882 2.68958 5.87729V18.1288C2.68846 19.8034 3.0175 21.4618 3.65789 23.0092C4.29828 24.5566 5.23745 25.9625 6.42168 27.1466C7.60591 28.3307 9.01196 29.2697 10.5594 29.9099C12.1069 30.55 13.7653 30.8789 15.44 30.8776H16.5626C18.2373 30.879 19.8957 30.5502 21.4431 29.91C22.9906 29.2699 24.3966 28.3309 25.5807 27.1467C26.7649 25.9626 27.7039 24.5566 28.3441 23.0092C28.9843 21.4618 29.3131 19.8034 29.3117 18.1288V5.87729C29.3124 5.15566 29.1675 4.44131 28.8856 3.77702ZM27.3197 18.1288C27.3197 22.7376 24.4213 26.6696 20.348 28.2013C19.1374 28.6561 17.8545 28.8884 16.5613 28.8869H15.44C14.1468 28.8884 12.8639 28.6561 11.6533 28.2013C7.57864 26.6696 4.68024 22.7376 4.68024 18.1288V5.87729C4.68024 4.97463 5.03882 4.10895 5.6771 3.47067C6.31537 2.8324 7.18106 2.47382 8.08371 2.47382H23.9162C24.8189 2.47382 25.6846 2.8324 26.3229 3.47067C26.9611 4.10895 27.3197 4.97463 27.3197 5.87729V18.1288Z" fill="#FBFF69"/>
    <path d="M27.3197 5.87734V18.1288C27.3197 22.7376 24.4213 26.6696 20.348 28.2013C19.1374 28.6562 17.8545 28.8885 16.5613 28.8869H15.44C14.1467 28.8885 12.8639 28.6562 11.6533 28.2013C7.57864 26.6696 4.68024 22.7376 4.68024 18.1288V5.87734C4.68024 4.97469 5.03882 4.109 5.67709 3.47073C6.31536 2.83246 7.18105 2.47388 8.0837 2.47388H23.9162C24.8189 2.47388 25.6846 2.83246 26.3228 3.47073C26.9611 4.109 27.3197 4.97469 27.3197 5.87734Z" fill="#FBFF69"/>
    <path d="M27.9691 4.16477C27.6327 3.36787 27.0687 2.68793 26.3477 2.21011C25.6267 1.73229 24.7807 1.47785 23.9158 1.47864H8.08375C7.50587 1.47818 6.93357 1.59169 6.39961 1.81267C5.86564 2.03364 5.3805 2.35775 4.97194 2.76643C4.56337 3.17512 4.23941 3.66036 4.0186 4.19439C3.79779 4.72842 3.68445 5.30076 3.68508 5.87864V18.1288C3.67997 20.5506 4.4278 22.9141 5.82508 24.8922C6.90883 26.4354 8.34854 27.6946 10.0222 28.5632C11.6959 29.4318 13.5543 29.8842 15.44 29.8821H16.5627C18.1063 29.8824 19.6348 29.5786 21.0609 28.9881C22.487 28.3975 23.7829 27.5318 24.8743 26.4404C25.9658 25.3489 26.8316 24.0531 27.4222 22.627C28.0127 21.2008 28.3166 19.6723 28.3163 18.1288V5.87731C28.3169 5.28892 28.1988 4.70645 27.9691 4.16477ZM27.3198 18.1288C27.3198 22.7376 24.4214 26.6696 20.348 28.2013C19.1374 28.6562 17.8546 28.8884 16.5614 28.8869H15.44C14.1468 28.8884 12.8639 28.6562 11.6534 28.2013C7.57868 26.6696 4.68028 22.7376 4.68028 18.1288V5.87731C4.68028 4.97465 5.03886 4.10897 5.67714 3.47069C6.31541 2.83242 7.1811 2.47384 8.08375 2.47384H23.9163C24.8189 2.47384 25.6846 2.83242 26.3229 3.47069C26.9612 4.10897 27.3198 4.97465 27.3198 5.87731V18.1288Z" fill="#121316"/>
    <path d="M22.9978 12.4C22.793 12.4 22.5901 12.4403 22.4008 12.5187C22.2115 12.5971 22.0395 12.712 21.8946 12.8568C21.7497 13.0017 21.6348 13.1737 21.5564 13.363C21.4779 13.5523 21.4376 13.7551 21.4376 13.96C21.4376 14.0134 21.4402 14.0653 21.4453 14.1158L16.4421 16.1555V14.3552L20.0437 12.8886V10.7952C20.4035 10.689 20.7129 10.4566 20.9153 10.1408C21.1177 9.82501 21.1996 9.44683 21.1459 9.07558C21.0922 8.70432 20.9066 8.36483 20.623 8.11929C20.3394 7.87375 19.9768 7.73861 19.6017 7.73861C19.2266 7.73861 18.864 7.87375 18.5804 8.11929C18.2968 8.36483 18.1112 8.70432 18.0575 9.07558C18.0038 9.44683 18.0857 9.82501 18.2881 10.1408C18.4905 10.4566 18.8 10.689 19.1597 10.7952V12.2934L16.4421 13.4008V7.56083C16.8019 7.45456 17.1114 7.22221 17.3139 6.90634C17.5164 6.59047 17.5983 6.21223 17.5446 5.8409C17.4909 5.46957 17.3052 5.13001 17.0216 4.88442C16.7379 4.63884 16.3753 4.50366 16.0001 4.50366C15.6249 4.50366 15.2623 4.63884 14.9786 4.88442C14.695 5.13001 14.5093 5.46957 14.4556 5.8409C14.402 6.21223 14.4838 6.59047 14.6863 6.90634C14.8888 7.22221 15.1983 7.45456 15.5581 7.56083V13.4008L12.8402 12.2934V10.7947C13.2001 10.6884 13.5096 10.4561 13.712 10.1402C13.9145 9.82434 13.9964 9.44609 13.9427 9.07476C13.889 8.70343 13.7034 8.36388 13.4197 8.11829C13.1361 7.8727 12.7734 7.73753 12.3982 7.73753C12.0231 7.73753 11.6604 7.8727 11.3768 8.11829C11.0931 8.36388 10.9075 8.70343 10.8538 9.07476C10.8001 9.44609 10.882 9.82434 11.0845 10.1402C11.2869 10.4561 11.5964 10.6884 11.9562 10.7947V12.888L15.5581 14.3547V16.155L10.5546 14.1152C10.5598 14.064 10.5624 14.0121 10.5624 13.9595C10.5625 13.5911 10.4322 13.2346 10.1946 12.9531C9.95709 12.6716 9.62757 12.4832 9.26445 12.4213C8.90132 12.3594 8.52802 12.428 8.21063 12.615C7.89324 12.802 7.65224 13.0952 7.53032 13.4428C7.40839 13.7904 7.4134 14.1699 7.54446 14.5142C7.67552 14.8584 7.92417 15.1452 8.24638 15.3237C8.5686 15.5022 8.94359 15.561 9.30495 15.4895C9.66632 15.4181 9.99074 15.2211 10.2208 14.9334L15.5581 17.1096V21.2939L12.56 20.0712L12.5008 20.047C12.5058 19.9958 12.5085 19.9435 12.5085 19.8907C12.5086 19.5223 12.3783 19.1658 12.1408 18.8842C11.9032 18.6027 11.5737 18.4142 11.2105 18.3523C10.8474 18.2904 10.474 18.359 10.1566 18.5459C9.83914 18.7328 9.59807 19.026 9.47605 19.3736C9.35404 19.7212 9.35895 20.1008 9.48991 20.4451C9.62088 20.7894 9.86945 21.0763 10.1916 21.2549C10.5138 21.4336 10.8888 21.4924 11.2502 21.4211C11.6116 21.3498 11.9362 21.153 12.1664 20.8654L12.2258 20.8896L15.5592 22.2483V26.2435C14.0506 26.3578 12.6476 27.0611 11.6533 28.2014C12.8639 28.6562 14.1468 28.8885 15.44 28.887H15.5594V29.527H16.4434V28.887H16.5626C17.8559 28.8885 19.1387 28.6562 20.3493 28.2014C19.355 27.0611 17.952 26.3578 16.4434 26.2435V22.2483L19.7768 20.8896L19.836 20.8654C20.0662 21.1529 20.3906 21.3497 20.752 21.421C21.1134 21.4923 21.4883 21.4334 21.8104 21.2548C22.1325 21.0761 22.381 20.7893 22.5119 20.4451C22.6429 20.1008 22.6478 19.7213 22.5258 19.3738C22.4038 19.0263 22.1628 18.7331 21.8454 18.5462C21.528 18.3593 21.1547 18.2908 20.7917 18.3527C20.4286 18.4146 20.0991 18.6029 19.8616 18.8844C19.6241 19.1659 19.4938 19.5224 19.4938 19.8907C19.4938 19.944 19.4965 19.9958 19.5016 20.047L19.4429 20.0712L16.4421 21.2939V17.1102L21.7792 14.9334C21.9438 15.1397 22.1582 15.301 22.4021 15.4019C22.6461 15.5029 22.9117 15.5403 23.174 15.5107C23.4364 15.481 23.6869 15.3853 23.9022 15.2324C24.1175 15.0796 24.2904 14.8746 24.4049 14.6367C24.5193 14.3987 24.5715 14.1357 24.5566 13.8721C24.5417 13.6085 24.4601 13.353 24.3195 13.1295C24.1789 12.906 23.9839 12.7218 23.7528 12.5943C23.5216 12.4667 23.2619 12.3999 22.9978 12.4ZM18.9256 9.29869C18.9256 9.16494 18.9652 9.03419 19.0396 8.92298C19.1139 8.81177 19.2195 8.72509 19.3431 8.6739C19.4666 8.62272 19.6026 8.60932 19.7338 8.63542C19.865 8.66151 19.9855 8.72592 20.08 8.8205C20.1746 8.91508 20.239 9.03558 20.2651 9.16676C20.2912 9.29794 20.2778 9.43392 20.2266 9.55749C20.1755 9.68106 20.0888 9.78668 19.9776 9.86099C19.8664 9.9353 19.7356 9.97496 19.6018 9.97496C19.4226 9.97475 19.2507 9.90343 19.1239 9.77665C18.9971 9.64987 18.9258 9.47798 18.9256 9.29869ZM11.7218 9.29869C11.7218 9.16494 11.7615 9.03419 11.8358 8.92298C11.9101 8.81177 12.0157 8.72509 12.1393 8.6739C12.2629 8.62272 12.3989 8.60932 12.53 8.63542C12.6612 8.66151 12.7817 8.72592 12.8763 8.8205C12.9709 8.91508 13.0353 9.03558 13.0614 9.16676C13.0875 9.29794 13.0741 9.43392 13.0229 9.55749C12.9717 9.68106 12.885 9.78668 12.7738 9.86099C12.6626 9.9353 12.5319 9.97496 12.3981 9.97496C12.2188 9.97475 12.0469 9.90343 11.9202 9.77665C11.7934 9.64987 11.7221 9.47798 11.7218 9.29869ZM9.00185 14.6358C8.8681 14.6358 8.73735 14.5961 8.62614 14.5218C8.51492 14.4475 8.42825 14.3419 8.37706 14.2183C8.32588 14.0947 8.31248 13.9587 8.33858 13.8276C8.36467 13.6964 8.42908 13.5759 8.52366 13.4813C8.61823 13.3867 8.73873 13.3223 8.86992 13.2962C9.0011 13.2701 9.13707 13.2835 9.26065 13.3347C9.38422 13.3859 9.48984 13.4726 9.56414 13.5838C9.63845 13.695 9.67812 13.8257 9.67812 13.9595C9.6779 14.1387 9.60662 14.3106 9.4799 14.4374C9.35318 14.5641 9.18136 14.6355 9.00212 14.6358H9.00185ZM10.9485 20.5667C10.8148 20.5667 10.684 20.527 10.5728 20.4527C10.4616 20.3784 10.3749 20.2727 10.3237 20.1492C10.2725 20.0256 10.2591 19.8896 10.2853 19.7584C10.3114 19.6272 10.3758 19.5067 10.4704 19.4121C10.565 19.3176 10.6855 19.2532 10.8167 19.2271C10.9479 19.2011 11.0839 19.2145 11.2075 19.2657C11.3311 19.3169 11.4367 19.4037 11.5109 19.5149C11.5852 19.6262 11.6248 19.7569 11.6248 19.8907C11.6246 20.0701 11.5532 20.242 11.4263 20.3687C11.2994 20.4955 11.1273 20.5667 10.948 20.5667H10.9485ZM21.0525 19.2144C21.1863 19.2144 21.317 19.2541 21.4282 19.3284C21.5394 19.4027 21.6261 19.5083 21.6773 19.6319C21.7285 19.7555 21.7419 19.8914 21.7158 20.0226C21.6897 20.1538 21.6253 20.2743 21.5307 20.3689C21.4361 20.4635 21.3156 20.5279 21.1844 20.554C21.0533 20.5801 20.9173 20.5667 20.7937 20.5155C20.6701 20.4643 20.5645 20.3776 20.4902 20.2664C20.4159 20.1552 20.3762 20.0244 20.3762 19.8907C20.3765 19.7115 20.4477 19.5397 20.5744 19.4129C20.701 19.2862 20.8728 19.2148 21.052 19.2144H21.0525ZM16 6.73976C15.8662 6.73976 15.7355 6.70009 15.6242 6.62577C15.513 6.55145 15.4263 6.44581 15.3752 6.32223C15.324 6.19864 15.3106 6.06265 15.3367 5.93146C15.3628 5.80027 15.4273 5.67977 15.5219 5.5852C15.6165 5.49064 15.737 5.42625 15.8682 5.40019C15.9994 5.37412 16.1354 5.38755 16.259 5.43878C16.3825 5.49001 16.4881 5.57673 16.5624 5.68797C16.6367 5.79922 16.6763 5.92999 16.6762 6.06376C16.676 6.24303 16.6047 6.41489 16.4779 6.54162C16.3511 6.66836 16.1792 6.73962 16 6.73976ZM22.9978 14.6358C22.8641 14.6358 22.7333 14.5961 22.6221 14.5218C22.5109 14.4475 22.4242 14.3419 22.3731 14.2183C22.3219 14.0947 22.3085 13.9587 22.3346 13.8276C22.3607 13.6964 22.4251 13.5759 22.5197 13.4813C22.6142 13.3867 22.7347 13.3223 22.8659 13.2962C22.9971 13.2701 23.1331 13.2835 23.2566 13.3347C23.3802 13.3859 23.4858 13.4726 23.5601 13.5838C23.6345 13.695 23.6741 13.8257 23.6741 13.9595C23.674 14.1388 23.6027 14.3107 23.4759 14.4375C23.3491 14.5643 23.1772 14.6356 22.9978 14.6358Z" fill="#121316"/>
</svg>