<svg
    xmlns="http://www.w3.org/2000/svg"
    width="16"
    height="16"
    viewBox="0 0 16 16"
    fill="none"
>
    <path
        d="M9.80274 13.0897L8.02948 11.0735C7.15161 10.0754 7.04761 9.6368 7.10541 9.54227L7.77094 9.00627L10.4685 6.89627C10.686 6.72613 10.7244 6.41191 10.5543 6.19439C10.3841 5.97689 10.0699 5.93848 9.85234 6.10861L7.15201 8.22073L6.33994 8.88353C6.15036 9.087 6.02946 9.43493 6.16132 9.92973C6.28437 10.3915 6.62952 11.0017 7.36441 11.8395L7.09301 12.3748C6.91768 12.6185 6.75494 12.8447 6.60515 12.9998C6.45631 13.1539 6.18586 13.3803 5.80917 13.3054C5.43744 13.2315 5.27062 12.9241 5.18803 12.7269C5.10415 12.5266 5.0331 12.2549 4.95602 11.9603L4.62169 10.6826C4.43598 9.97293 4.37186 9.76893 4.25102 9.6188C4.23576 9.59987 4.21988 9.58153 4.2034 9.56393C4.07582 9.42733 3.89564 9.34327 3.23568 9.07873L3.19952 9.0642C2.54913 8.80353 2.01338 8.5888 1.63866 8.3778C1.27564 8.1734 0.88361 7.87627 0.83851 7.37487C0.831503 7.29693 0.831623 7.21853 0.83887 7.1406C0.88551 6.63934 1.27851 6.34344 1.64218 6.14025C2.01756 5.93051 2.55397 5.71755 3.20516 5.45903L11.1945 2.28701C12.0118 1.96253 12.68 1.69719 13.2051 1.57623C13.7404 1.4529 14.2934 1.43984 14.7267 1.84067C15.1515 2.23359 15.2024 2.78712 15.1495 3.34498C15.0969 3.89847 14.9243 4.61828 14.7113 5.5062L13.0981 12.2309C12.9624 12.7969 12.8478 13.2747 12.7103 13.6214C12.5715 13.9717 12.3489 14.3477 11.8989 14.4667C11.4436 14.5871 11.0673 14.3627 10.7813 14.1206C10.5003 13.8829 10.1799 13.5186 9.80274 13.0897Z"
        fill="#121316"
    />
</svg>